<?xml version="1.0" encoding="UTF-8" standalone="no"?>
<!-- Created with Inkscape (http://www.inkscape.org/) -->

<svg
   width="50"
   height="50"
   viewBox="0 0 132.29166 132.29167"
   version="1.1"
   id="svg1"
   xmlns="http://www.w3.org/2000/svg"
   xmlns:svg="http://www.w3.org/2000/svg">
  <defs
     id="defs1" />
  <g
     id="layer1">
    <g
       id="g1"
       transform="matrix(2.4038462,0,0,2.4038462,-60.421677,-50.245396)"
       style="stroke-width:0.416001">
      <path
         d="m 42.201041,30.691667 h -4.233333 a 1.1919691,1.1919691 0 0 1 -1.190625,-1.190625 v -5.55625 a 1.1919691,1.1919691 0 0 1 1.190625,-1.190625 h 4.233333 a 1.1919664,1.1919664 0 0 1 1.190625,1.190625 v 5.55625 a 1.1919664,1.1919664 0 0 1 -1.190625,1.190625 z"
         fill="#e6e6e6"
         id="path32"
         style="stroke-width:0.110067" />
      <path
         d="M 77.919791,75.935416 H 56.223958 A 2.2514745,2.2514745 0 0 1 53.975,73.686458 v -42.06875 a 2.2514745,2.2514745 0 0 1 2.248958,-2.248958 h 21.695833 a 2.2514718,2.2514718 0 0 1 2.248958,2.248958 v 42.06875 a 2.2514718,2.2514718 0 0 1 -2.248958,2.248958 z"
         fill="#e6e6e6"
         id="path33"
         style="stroke-width:0.110067" />
      <path
         d="M 64.955208,75.935416 H 27.384375 a 2.2514745,2.2514745 0 0 1 -2.248958,-2.248958 v -42.06875 a 2.2514745,2.2514745 0 0 1 2.248958,-2.248958 h 37.570833 a 2.2514718,2.2514718 0 0 1 2.248958,2.248958 v 42.06875 a 2.2514718,2.2514718 0 0 1 -2.248958,2.248958 z"
         fill="#f2f2f2"
         id="path34"
         style="stroke-width:0.110067" />
      <path
         d="m 38.232291,30.691667 h -4.233333 a 1.1919691,1.1919691 0 0 1 -1.190625,-1.190625 v -5.55625 a 1.1919691,1.1919691 0 0 1 1.190625,-1.190625 h 4.233333 a 1.1919664,1.1919664 0 0 1 1.190625,1.190625 v 5.55625 a 1.1919664,1.1919664 0 0 1 -1.190625,1.190625 z"
         fill="#f2f2f2"
         id="path35"
         style="stroke-width:0.110067" />
      <path
         d="M 44.837899,48.625035 H 39.810816 A 0.66223885,0.66223885 0 0 1 39.149358,47.963576 V 40.29066 a 0.66223885,0.66223885 0 0 1 0.661458,-0.661459 h 5.027083 a 0.6622362,0.6622362 0 0 1 0.661459,0.661459 v 7.672916 a 0.6622362,0.6622362 0 0 1 -0.661459,0.661459 z"
         fill="#ffffff"
         id="path36"
         style="stroke-width:0.110067" />
      <path
         d="M 54.627483,48.625035 H 49.600399 A 0.66223885,0.66223885 0 0 1 48.938941,47.963576 V 40.29066 a 0.66223885,0.66223885 0 0 1 0.661458,-0.661459 h 5.027084 a 0.6622362,0.6622362 0 0 1 0.661458,0.661459 v 7.672916 a 0.6622362,0.6622362 0 0 1 -0.661458,0.661459 z"
         fill="#ffffff"
         id="path37"
         style="stroke-width:0.110067" />
      <path
         d="m 44.837899,62.647951 h -5.027083 a 0.66223885,0.66223885 0 0 1 -0.661458,-0.661458 v -7.672917 a 0.66223885,0.66223885 0 0 1 0.661458,-0.661458 h 5.027083 a 0.6622362,0.6622362 0 0 1 0.661459,0.661458 v 7.672917 a 0.6622362,0.6622362 0 0 1 -0.661459,0.661458 z"
         fill="#ffffff"
         id="path38"
         style="stroke-width:0.110067" />
      <path
         d="m 54.627483,62.647951 h -5.027084 a 0.66223885,0.66223885 0 0 1 -0.661458,-0.661458 v -7.672917 a 0.66223885,0.66223885 0 0 1 0.661458,-0.661458 h 5.027084 a 0.6622362,0.6622362 0 0 1 0.661458,0.661458 v 7.672917 a 0.6622362,0.6622362 0 0 1 -0.661458,0.661458 z"
         fill="#ffffff"
         id="path39"
         style="stroke-width:0.110067" />
    </g>
  </g>
</svg>
