<?xml version="1.0" encoding="UTF-8" standalone="no"?>
<!-- Created with Inkscape (http://www.inkscape.org/) -->

<svg
   width="300"
   height="300"
   viewBox="0 0 79.374998 79.375"
   version="1.1"
   id="svg1"
   inkscape:version="1.3.2 (091e20e, 2023-11-25)"
   sodipodi:docname="icon-multi.svg"
   inkscape:export-filename="icon-older.png"
   inkscape:export-xdpi="72"
   inkscape:export-ydpi="72"
   xml:space="preserve"
   xmlns:inkscape="http://www.inkscape.org/namespaces/inkscape"
   xmlns:sodipodi="http://sodipodi.sourceforge.net/DTD/sodipodi-0.dtd"
   xmlns:xlink="http://www.w3.org/1999/xlink"
   xmlns="http://www.w3.org/2000/svg"
   xmlns:svg="http://www.w3.org/2000/svg"><sodipodi:namedview
     id="namedview1"
     pagecolor="#ffffff"
     bordercolor="#cccccc"
     borderopacity="1"
     inkscape:showpageshadow="0"
     inkscape:pageopacity="1"
     inkscape:pagecheckerboard="0"
     inkscape:deskcolor="#d1d1d1"
     inkscape:document-units="mm"
     inkscape:zoom="1.0093299"
     inkscape:cx="3.9630255"
     inkscape:cy="217.47102"
     inkscape:window-width="1920"
     inkscape:window-height="1052"
     inkscape:window-x="1341"
     inkscape:window-y="0"
     inkscape:window-maximized="0"
     inkscape:current-layer="layer4"
     showgrid="false" /><defs
     id="defs1"><linearGradient
       id="linearGradient48"><stop
         style="stop-color:#ffdbb3;stop-opacity:0.86545455;"
         offset="0"
         id="stop46" /><stop
         style="stop-color:#ff8c00;stop-opacity:1;"
         offset="0.85736358"
         id="stop47" /><stop
         style="stop-color:#ff8c00;stop-opacity:1;"
         offset="1"
         id="stop48" /></linearGradient><linearGradient
       id="linearGradient44"><stop
         style="stop-color:#b3e6ff;stop-opacity:1;"
         offset="0"
         id="stop42" /><stop
         style="stop-color:#00bfff;stop-opacity:1;"
         offset="0.26350564"
         id="stop43" /><stop
         style="stop-color:#007acc;stop-opacity:1;"
         offset="1"
         id="stop44" /></linearGradient><linearGradient
       id="linearGradient40"><stop
         style="stop-color:#b3e6ff;stop-opacity:1;"
         offset="0"
         id="stop41" /><stop
         style="stop-color:#00bfff;stop-opacity:1;"
         offset="0.33378747"
         id="stop38" /><stop
         style="stop-color:#00bfff;stop-opacity:1;"
         offset="0.65451384"
         id="stop39" /><stop
         style="stop-color:#007acc;stop-opacity:1;"
         offset="1"
         id="stop40" /></linearGradient><linearGradient
       id="linearGradient1"
       inkscape:collect="always"><stop
         style="stop-color:#ffffff;stop-opacity:0;"
         offset="0"
         id="stop1" /><stop
         style="stop-color:#ffffff;stop-opacity:0;"
         offset="1"
         id="stop2" /></linearGradient><linearGradient
       xlink:href="#linearGradient4"
       id="linearGradient5"
       x1="110.64421"
       y1="-1.1747324"
       x2="108.92632"
       y2="-4.0378761"
       gradientUnits="userSpaceOnUse"
       gradientTransform="matrix(1.3031159,0,0,1,-7.406408,-7.0691238)" /><linearGradient
       id="linearGradient4"><stop
         style="stop-color:#ffffff;stop-opacity:0;"
         offset="0"
         id="stop4" /><stop
         style="stop-color:#ffffff;stop-opacity:0;"
         offset="1"
         id="stop5" /></linearGradient><linearGradient
       xlink:href="#linearGradient76"
       id="linearGradient77"
       x1="7.997272"
       y1="27.327971"
       x2="26.409044"
       y2="17.649084"
       gradientUnits="userSpaceOnUse"
       gradientTransform="matrix(1.3031159,0,0,1,-7.406408,-7.0691238)" /><linearGradient
       id="linearGradient76"><stop
         style="stop-color:#00bfff;stop-opacity:1;"
         offset="0"
         id="stop76" /><stop
         style="stop-color:#00bfff;stop-opacity:1;"
         offset="0.54415959"
         id="stop78" /><stop
         style="stop-color:#007acc;stop-opacity:1;"
         offset="1"
         id="stop77" /></linearGradient><linearGradient
       xlink:href="#linearGradient78"
       id="linearGradient80"
       x1="2.2112679"
       y1="-7.0626364"
       x2="30.261442"
       y2="7.0046778"
       gradientUnits="userSpaceOnUse"
       gradientTransform="translate(-8.4658696,30.502109)" /><linearGradient
       id="linearGradient78"><stop
         style="stop-color:#b3e6ff;stop-opacity:1;"
         offset="0"
         id="stop80" /><stop
         style="stop-color:#00bfff;stop-opacity:1;"
         offset="0.25944749"
         id="stop79" /></linearGradient><linearGradient
       xlink:href="#linearGradient73"
       id="linearGradient75"
       x1="10.50292"
       y1="-13.89063"
       x2="37.002129"
       y2="39.066921"
       gradientUnits="userSpaceOnUse"
       gradientTransform="translate(47.097307,0.65717172)" /><linearGradient
       id="linearGradient73"><stop
         style="stop-color:#b3e6ff;stop-opacity:0.82909089;"
         offset="0"
         id="stop74" /><stop
         style="stop-color:#00bfff;stop-opacity:1;"
         offset="0.09544157"
         id="stop86" /><stop
         style="stop-color:#007acc;stop-opacity:1;"
         offset="0.69943017"
         id="stop75" /></linearGradient><linearGradient
       xlink:href="#linearGradient83"
       id="linearGradient84"
       x1="-13.14045"
       y1="27.835751"
       x2="-6.7376413"
       y2="31.120367"
       gradientUnits="userSpaceOnUse"
       gradientTransform="rotate(15.219597,95.370122,51.144414)" /><linearGradient
       id="linearGradient83"><stop
         style="stop-color:#ffcc00;stop-opacity:1;"
         offset="0"
         id="stop83" /><stop
         style="stop-color:#ff8c00;stop-opacity:1;"
         offset="0"
         id="stop87" /><stop
         style="stop-color:#ff8c00;stop-opacity:1;"
         offset="1"
         id="stop84" /></linearGradient><linearGradient
       xlink:href="#linearGradient4"
       id="linearGradient3"
       x1="-5.1046152"
       y1="18.478617"
       x2="-6.0293651"
       y2="17.040129"
       gradientUnits="userSpaceOnUse"
       gradientTransform="translate(17.9956,-29.134613)" /><linearGradient
       xlink:href="#linearGradient81"
       id="linearGradient82"
       x1="-4.8779893"
       y1="18.478617"
       x2="5.2100215"
       y2="35.062393"
       gradientUnits="userSpaceOnUse"
       gradientTransform="translate(17.768974,-29.134613)" /><linearGradient
       id="linearGradient81"><stop
         style="stop-color:#ffdbb3;stop-opacity:0.86545455;"
         offset="0"
         id="stop81" /><stop
         style="stop-color:#ff8c00;stop-opacity:1;"
         offset="0.35327637"
         id="stop85" /><stop
         style="stop-color:#ff8c00;stop-opacity:1;"
         offset="1"
         id="stop82" /></linearGradient><linearGradient
       xlink:href="#linearGradient1"
       id="linearGradient5-5"
       x1="110.64421"
       y1="-1.1747324"
       x2="108.92632"
       y2="-4.0378761"
       gradientUnits="userSpaceOnUse" /><linearGradient
       xlink:href="#linearGradient76"
       id="linearGradient77-1"
       x1="7.997272"
       y1="27.327971"
       x2="26.409044"
       y2="17.649084"
       gradientUnits="userSpaceOnUse" /><linearGradient
       xlink:href="#linearGradient78-8"
       id="linearGradient80-3"
       x1="2.2112679"
       y1="-7.0626364"
       x2="7.917604"
       y2="-4.3862987"
       gradientUnits="userSpaceOnUse" /><linearGradient
       id="linearGradient78-8"><stop
         style="stop-color:#b3e6ff;stop-opacity:1;"
         offset="0"
         id="stop80-4" /><stop
         style="stop-color:#00bfff;stop-opacity:1;"
         offset="0"
         id="stop79-8" /></linearGradient><linearGradient
       xlink:href="#linearGradient73"
       id="linearGradient75-0"
       x1="10.50292"
       y1="-13.89063"
       x2="37.002129"
       y2="39.066921"
       gradientUnits="userSpaceOnUse" /><linearGradient
       xlink:href="#linearGradient83"
       id="linearGradient84-3"
       x1="-13.14045"
       y1="27.835751"
       x2="-6.7376413"
       y2="31.120367"
       gradientUnits="userSpaceOnUse" /><linearGradient
       xlink:href="#linearGradient1"
       id="linearGradient3-4"
       x1="-5.1046152"
       y1="18.478617"
       x2="-6.0293651"
       y2="17.040129"
       gradientUnits="userSpaceOnUse"
       gradientTransform="translate(57.389256,0.98189483)" /><linearGradient
       xlink:href="#linearGradient81"
       id="linearGradient82-7"
       x1="-4.8779893"
       y1="18.478617"
       x2="5.2100215"
       y2="35.062393"
       gradientUnits="userSpaceOnUse"
       gradientTransform="translate(57.16263,0.98189483)" /><linearGradient
       id="linearGradient8-6"
       gradientTransform="matrix(0.317096,0,0,1.7760793,135.17887,79.259515)"
       x1="-25.660222"
       y1="3.2429023"
       x2="-11.992578"
       y2="3.2429023"
       gradientUnits="userSpaceOnUse"><stop
         style="stop-color:#b3e6ff;stop-opacity:1;"
         offset="0"
         id="stop5-6" /><stop
         style="stop-color:#00bfff;stop-opacity:1;"
         offset="0.25944749"
         id="stop6" /></linearGradient><linearGradient
       inkscape:collect="always"
       xlink:href="#linearGradient4"
       id="linearGradient14"
       gradientUnits="userSpaceOnUse"
       gradientTransform="matrix(0.97793414,0,0,0.7504583,129.62067,73.954435)"
       x1="110.64421"
       y1="-1.1747324"
       x2="108.92632"
       y2="-4.0378761" /><linearGradient
       inkscape:collect="always"
       xlink:href="#linearGradient76"
       id="linearGradient15"
       gradientUnits="userSpaceOnUse"
       gradientTransform="matrix(0.97793414,0,0,0.7504583,129.62067,73.954435)"
       x1="7.997272"
       y1="27.327971"
       x2="26.409044"
       y2="17.649084" /><linearGradient
       inkscape:collect="always"
       xlink:href="#linearGradient1"
       id="linearGradient16"
       gradientUnits="userSpaceOnUse"
       gradientTransform="matrix(0.7504583,0,0,0.7504583,135.8945,99.190995)"
       x1="-11.795972"
       y1="10.812279"
       x2="26.305157"
       y2="10.812279" /><linearGradient
       inkscape:collect="always"
       xlink:href="#linearGradient78"
       id="linearGradient17"
       gradientUnits="userSpaceOnUse"
       gradientTransform="matrix(0.7504583,0,0,0.7504583,128.82559,102.15008)"
       x1="2.2112679"
       y1="-7.0626364"
       x2="30.261442"
       y2="7.0046778" /><linearGradient
       inkscape:collect="always"
       xlink:href="#linearGradient1"
       id="linearGradient18"
       gradientUnits="userSpaceOnUse"
       gradientTransform="matrix(0,-0.61728332,0.7504583,0,145.35428,101.73699)"
       x1="-11.795972"
       y1="10.812279"
       x2="9.656806"
       y2="10.812279" /><linearGradient
       inkscape:collect="always"
       xlink:href="#linearGradient78"
       id="linearGradient19"
       gradientUnits="userSpaceOnUse"
       gradientTransform="matrix(0,-0.61728332,0.7504583,0,148.31336,107.55147)"
       x1="2.2112679"
       y1="-7.0626364"
       x2="30.261442"
       y2="7.0046778" /><linearGradient
       inkscape:collect="always"
       xlink:href="#linearGradient1"
       id="linearGradient20"
       gradientUnits="userSpaceOnUse"
       gradientTransform="matrix(0,-0.61728332,0.7504583,0,121.09493,101.63472)"
       x1="-11.795972"
       y1="10.812279"
       x2="9.656806"
       y2="10.812279" /><linearGradient
       inkscape:collect="always"
       xlink:href="#linearGradient73"
       id="linearGradient21"
       gradientUnits="userSpaceOnUse"
       gradientTransform="matrix(0.7504583,0,0,0.7504583,199.85838,60.841563)"
       x1="10.50292"
       y1="-13.89063"
       x2="37.002129"
       y2="39.066921" /><linearGradient
       inkscape:collect="always"
       xlink:href="#linearGradient1"
       id="linearGradient22"
       gradientUnits="userSpaceOnUse"
       gradientTransform="matrix(0,-0.61728332,0.7504583,0,121.09493,101.73699)"
       x1="-11.795972"
       y1="10.812279"
       x2="9.656806"
       y2="10.812279" /><linearGradient
       inkscape:collect="always"
       xlink:href="#linearGradient78"
       id="linearGradient23"
       gradientUnits="userSpaceOnUse"
       gradientTransform="matrix(0,-0.61728332,0.7504583,0,124.05401,107.55147)"
       x1="2.2112679"
       y1="-7.0626364"
       x2="30.261442"
       y2="7.0046778" /><linearGradient
       xlink:href="#linearGradient1"
       id="linearGradient5-59"
       x1="110.64421"
       y1="-1.1747324"
       x2="108.92632"
       y2="-4.0378761"
       gradientUnits="userSpaceOnUse"
       gradientTransform="matrix(1.5451128,0,0,1,46.937554,21.204909)" /><linearGradient
       xlink:href="#linearGradient76"
       id="linearGradient77-9"
       x1="7.997272"
       y1="27.327971"
       x2="26.409044"
       y2="17.649084"
       gradientUnits="userSpaceOnUse"
       gradientTransform="matrix(1.5451128,0,0,1,46.937554,21.204909)" /><linearGradient
       xlink:href="#linearGradient78-8"
       id="linearGradient80-36"
       x1="2.2112679"
       y1="-7.0626364"
       x2="7.917604"
       y2="-4.3862987"
       gradientUnits="userSpaceOnUse" /><linearGradient
       xlink:href="#linearGradient73"
       id="linearGradient75-04"
       x1="10.50292"
       y1="-13.89063"
       x2="37.002129"
       y2="39.066921"
       gradientUnits="userSpaceOnUse"
       gradientTransform="translate(103.4223,-29.315755)" /><linearGradient
       xlink:href="#linearGradient83"
       id="linearGradient84-4"
       x1="-13.14045"
       y1="27.835751"
       x2="-6.7376413"
       y2="31.120367"
       gradientUnits="userSpaceOnUse" /><linearGradient
       xlink:href="#linearGradient1"
       id="linearGradient3-0"
       x1="-5.1046152"
       y1="18.478617"
       x2="-6.0293651"
       y2="17.040129"
       gradientUnits="userSpaceOnUse"
       gradientTransform="matrix(1.5052291,0,0,0.92506357,78.355662,-18.445655)" /><linearGradient
       xlink:href="#linearGradient81"
       id="linearGradient82-9"
       x1="-4.8779893"
       y1="18.478617"
       x2="5.2100215"
       y2="35.062393"
       gradientUnits="userSpaceOnUse"
       gradientTransform="matrix(1.5052291,0,0,0.92506357,78.014539,-18.445655)" /><linearGradient
       inkscape:collect="always"
       xlink:href="#linearGradient1"
       id="linearGradient29"
       gradientUnits="userSpaceOnUse"
       gradientTransform="matrix(0,-1.3424052,1,0,40.018856,48.049301)"
       x1="110.64421"
       y1="-1.1747324"
       x2="108.92632"
       y2="-4.0378761" /><linearGradient
       inkscape:collect="always"
       xlink:href="#linearGradient40"
       id="linearGradient30"
       gradientUnits="userSpaceOnUse"
       gradientTransform="matrix(0,-1.3424052,1,0,40.018856,48.049301)"
       x1="7.0506887"
       y1="12.662935"
       x2="26.409044"
       y2="17.649084" /><linearGradient
       inkscape:collect="always"
       xlink:href="#linearGradient1"
       id="linearGradient31"
       gradientUnits="userSpaceOnUse"
       gradientTransform="matrix(0,-1.3424052,1,0,67.193194,48.049301)"
       x1="110.64421"
       y1="-1.1747324"
       x2="108.92632"
       y2="-4.0378761" /><linearGradient
       inkscape:collect="always"
       xlink:href="#linearGradient44"
       id="linearGradient32"
       gradientUnits="userSpaceOnUse"
       gradientTransform="matrix(0,-1.3424052,1,0,67.193194,48.049301)"
       x1="7.0506887"
       y1="27.285147"
       x2="26.409044"
       y2="17.649084" /><linearGradient
       inkscape:collect="always"
       xlink:href="#linearGradient1"
       id="linearGradient33"
       gradientUnits="userSpaceOnUse"
       gradientTransform="matrix(-1.5052291,0,0,0.92506357,63.438644,-18.445655)"
       x1="-5.1046152"
       y1="18.478617"
       x2="-6.0293651"
       y2="17.040129" /><linearGradient
       inkscape:collect="always"
       xlink:href="#linearGradient81"
       id="linearGradient34"
       gradientUnits="userSpaceOnUse"
       gradientTransform="matrix(-1.5052291,0,0,0.92506357,63.779767,-18.445655)"
       x1="-4.8779893"
       y1="18.478617"
       x2="5.2100215"
       y2="35.062393" /><linearGradient
       inkscape:collect="always"
       xlink:href="#linearGradient1"
       id="linearGradient45"
       gradientUnits="userSpaceOnUse"
       gradientTransform="matrix(-1.0172825,-0.39099574,-0.78339842,0.19998091,93.258725,9.2911563)"
       x1="-1.2712368"
       y1="26.105665"
       x2="-6.0293651"
       y2="17.040129" /><linearGradient
       inkscape:collect="always"
       xlink:href="#linearGradient48"
       id="linearGradient46"
       gradientUnits="userSpaceOnUse"
       gradientTransform="matrix(-1.0172825,-0.39099574,-0.78339842,0.19998091,93.489266,9.3797659)"
       x1="-1.0446117"
       y1="26.105665"
       x2="4.2494421"
       y2="36.224007" /></defs><g
     inkscape:groupmode="layer"
     id="layer2"
     inkscape:label="Layer 2"
     style="stroke-width:5.67396;stroke-dasharray:none"
     transform="matrix(1.5497858,0,0,1.5497858,-80.12103,-20.113287)"><path
       style="fill:url(#linearGradient14);fill-opacity:1;stroke:url(#linearGradient15);stroke-width:4.25807;stroke-linecap:round;stroke-miterlimit:1.1;stroke-dasharray:none;paint-order:stroke fill markers"
       d="m 136.36903,87.148205 17.13736,0.10227 v 0"
       id="path8-7-8" /><path
       style="fill:url(#linearGradient16);stroke:url(#linearGradient17);stroke-width:4.25807;stroke-linecap:round;stroke-miterlimit:1.1;stroke-dasharray:none;paint-order:stroke fill markers"
       d="m 153.50639,107.34311 -24.33524,-0.0759 v 0"
       id="path7-0-7"
       sodipodi:nodetypes="ccc" /><path
       style="fill:url(#linearGradient18);fill-opacity:0;stroke:url(#linearGradient19);stroke-width:4.25807;stroke-linecap:round;stroke-miterlimit:1.1;stroke-dasharray:none;paint-order:stroke fill markers"
       d="m 153.50639,87.250475 -0.0759,20.016755 v 0"
       id="path2-7"
       sodipodi:nodetypes="ccc" /><path
       style="fill:url(#linearGradient8-6);fill-opacity:0;stroke:url(#linearGradient20);stroke-width:4.25807;stroke-linecap:round;stroke-miterlimit:1.1;stroke-dasharray:none;paint-order:stroke fill markers"
       d="m 129.24704,87.148205 -0.0759,20.016755 v 0"
       id="path7-4"
       sodipodi:nodetypes="ccc" /><path
       style="fill:#ffffff;fill-opacity:0;stroke:url(#linearGradient21);stroke-width:4.25807;stroke-linecap:round;stroke-miterlimit:1.1;stroke-dasharray:none;paint-order:stroke fill markers"
       d="m 207.74038,50.417225 19.88655,39.742428 v 0"
       id="path3-4-8" /><path
       style="fill:url(#linearGradient22);fill-opacity:0;stroke:url(#linearGradient23);stroke-width:4.25807;stroke-linecap:round;stroke-miterlimit:1.1;stroke-dasharray:none;paint-order:stroke fill markers"
       d="m 129.24704,87.250475 -0.0759,20.016755 v 0"
       id="path21"
       sodipodi:nodetypes="ccc" /></g><g
     inkscape:groupmode="layer"
     id="layer3"
     inkscape:label="Layer 3"><g
       id="layer7"
       style="stroke-width:8.79343;stroke-dasharray:none"
       transform="translate(-122.08164,-38.745863)"><g
         id="g41"><g
           id="g36"
           transform="matrix(1.7089567,0,0,1.7029872,40.197183,46.934311)"
           style="stroke-width:5.1545;stroke-dasharray:none"><g
             id="g35"
             transform="translate(-0.11699401)"
             style="stroke-width:5.1545"><path
               style="fill:url(#linearGradient5-59);fill-opacity:1;stroke:url(#linearGradient77-9);stroke-width:5.1545;stroke-linecap:round;stroke-miterlimit:1.1;stroke-dasharray:none;paint-order:stroke fill markers"
               d="m 57.599806,38.785859 27.076619,0.13627 v 0"
               id="path8-7" /><path
               style="fill:url(#linearGradient29);fill-opacity:1;stroke:url(#linearGradient30);stroke-width:5.1545;stroke-linecap:round;stroke-miterlimit:1.1;stroke-dasharray:none;paint-order:stroke fill markers"
               d="m 57.599806,38.785859 0.13627,-23.524364 v 0"
               id="path28" /><path
               style="fill:url(#linearGradient31);fill-opacity:1;stroke:url(#linearGradient32);stroke-width:5.1545;stroke-linecap:round;stroke-miterlimit:1.1;stroke-dasharray:none;paint-order:stroke fill markers"
               d="m 84.774144,38.785859 0.13627,-23.524364 v 0"
               id="path30" /></g><g
             id="g34"
             transform="matrix(1.0278289,0,0,1.0532958,-1.7320268,-1.1614486)"
             style="stroke-width:4.95394"><path
               style="display:none;fill:url(#linearGradient45);fill-opacity:1;stroke:url(#linearGradient46);stroke-width:2.67441;stroke-linecap:round;stroke-miterlimit:1.1;stroke-dasharray:none;paint-order:stroke fill markers"
               d="m 83.270508,15.065052 -25.754562,0.05475 v 0"
               id="path44" /><path
               style="fill:url(#linearGradient3-0);fill-opacity:1;stroke:url(#linearGradient82-9);stroke-width:4.95393;stroke-linecap:round;stroke-miterlimit:1.1;stroke-dasharray:none;paint-order:stroke fill markers"
               d="m 70.897153,-0.6989949 15.08211,18.3756479 v 0"
               id="path10-7" /><path
               style="fill:url(#linearGradient33);fill-opacity:1;stroke:url(#linearGradient34);stroke-width:4.95393;stroke-linecap:round;stroke-miterlimit:1.1;stroke-dasharray:none;paint-order:stroke fill markers"
               d="M 70.897153,-0.6989949 55.815043,17.676653 v 0"
               id="path32" /></g></g></g></g></g><g
     inkscape:groupmode="layer"
     id="layer4"
     inkscape:label="Layer 4"><g
       transform="matrix(0.0033951,0,0,-0.0033951,83.317394,102.78268)"
       fill="#000000"
       stroke="none"
       id="g3"
       style="fill:#007acc;fill-opacity:1;stroke-width:10.3908"><path
         d="m 3445,11506 c -371,-86 -624,-392 -626,-756 -1,-237 76,-417 249,-581 153,-146 315,-209 532,-209 309,0 561,154 696,425 67,136 88,231 82,385 -4,106 -10,138 -35,212 -87,251 -270,427 -528,508 -90,28 -282,36 -370,16 z"
         id="path1"
         style="fill:#b3e6ff;fill-opacity:1;stroke-width:10.3908" /><path
         d="m 7600,11119 c -116,-17 -204,-64 -289,-154 -55,-58 -105,-152 -116,-216 -5,-31 -19,-51 -62,-92 -160,-151 -243,-346 -243,-572 0,-188 51,-338 166,-484 103,-132 249,-227 419,-273 110,-29 278,-29 390,1 270,71 471,267 556,541 20,64 24,97 24,215 0,119 -3,151 -23,215 -46,144 -137,292 -226,365 -34,27 -45,45 -54,83 -56,243 -296,407 -542,371 z"
         id="path2"
         style="fill:#b3e6ff;fill-opacity:1;stroke-width:10.3908" /><path
         d="m 2905,10202 c -177,-19 -508,-95 -683,-157 -299,-104 -513,-250 -583,-399 l -29,-61 V 7838 6092 l -162,-4 c -157,-3 -165,-4 -211,-31 -30,-18 -54,-42 -67,-67 -20,-39 -20,-55 -18,-2398 l 3,-2359 29,-37 c 37,-49 85,-69 152,-64 63,5 118,43 143,97 15,33 16,218 16,2258 v 2223 h 105 c 105,0 105,0 148,-35 128,-101 319,-100 450,3 49,39 87,94 112,163 20,53 20,86 20,1496 v 1443 h 100 100 V 5173 c 0,-2397 4,-3623 11,-3652 29,-126 136,-258 254,-312 264,-119 555,17 639,300 14,49 16,244 16,2038 v 1983 h 150 150 V 3552 c 0,-1721 2,-1985 15,-2035 60,-232 278,-379 511,-346 188,26 348,180 385,369 10,50 11,795 6,3652 l -6,3588 h 102 102 V 7337 5895 l 26,-61 c 32,-78 72,-127 134,-169 222,-148 512,-22 555,241 6,33 10,82 10,109 0,43 43,150 321,795 176,410 375,874 442,1032 l 122,288 h 158 159 l -7,-32 c -7,-34 -504,-2124 -575,-2418 -67,-276 -480,-2013 -487,-2042 l -5,-28 h 486 486 V 2543 c 0,-603 4,-1096 10,-1132 19,-137 107,-252 238,-314 61,-29 76,-32 162,-32 86,0 101,3 162,32 89,42 148,98 194,186 l 39,72 5,1125 5,1125 h 205 205 l 5,-1125 5,-1125 26,-55 c 149,-315 576,-317 734,-5 l 30,60 5,1125 5,1125 489,3 488,2 -7,28 c -4,15 -124,518 -267,1117 -142,600 -381,1598 -529,2219 -148,622 -269,1136 -269,1143 0,10 35,13 159,13 h 160 l 25,-82 c 13,-46 93,-315 176,-598 403,-1368 463,-1568 487,-1610 36,-62 91,-113 160,-146 51,-25 69,-29 148,-29 82,0 97,3 158,33 45,23 82,50 114,87 l 48,55 h 88 87 V 3553 1266 l 21,-43 c 38,-79 138,-115 222,-79 42,17 83,66 97,114 14,52 14,4752 0,4804 -14,48 -55,97 -97,114 -23,10 -85,14 -223,14 -104,0 -190,2 -190,5 0,2 -93,318 -206,702 -113,384 -262,889 -331,1123 -300,1022 -298,1014 -405,1126 -104,108 -262,204 -462,278 -111,42 -318,97 -449,120 l -87,15 -47,-50 c -178,-191 -453,-291 -711,-260 -178,22 -344,98 -468,214 l -62,58 -82,-21 c -301,-77 -529,-187 -690,-333 -38,-34 -92,-79 -120,-100 -28,-21 -66,-61 -84,-90 -18,-29 -131,-283 -252,-564 l -219,-513 -5,848 -5,847 -27,55 c -111,227 -553,436 -1113,529 -192,32 -173,35 -253,-40 -120,-114 -236,-180 -387,-220 -112,-30 -298,-30 -410,0 -151,40 -270,107 -390,221 -59,55 -75,65 -100,62 z"
         id="path3"
         style="fill:#b3e6ff;fill-opacity:1;stroke-width:10.3908" /></g><g
       transform="matrix(0.02318343,0,0,-0.02318343,-295.64261,125.77376)"
       fill="#000000"
       stroke="none"
       id="g4"
       style="fill:#b3e6ff;fill-opacity:1"><g
         id="g1"
         transform="matrix(0.20392967,0,0,0.20392967,13276.849,2150.1772)"
         style="fill:#b3e6ff;fill-opacity:1"><path
           d="m 4785.908,6134 c -65,-12 -171,-59 -224,-98 -142,-107 -216,-254 -216,-432 0,-187 101,-364 263,-458 l 47,-28 v -99 -99 h -177 c -207,0 -277,-9 -350,-47 -64,-32 -142,-111 -176,-179 -13,-27 -40,-101 -60,-164 -19,-63 -116,-375 -216,-693 -100,-317 -181,-592 -181,-610 0,-171 185,-284 337,-206 27,14 60,42 76,65 19,28 70,175 170,494 l 143,455 44,-4 c 25,-1 47,-5 49,-6 2,-2 -127,-446 -286,-987 l -289,-983 283,-3 283,-2 v -818 c 0,-773 1,-819 19,-857 40,-88 99,-115 244,-115 129,0 176,20 222,95 l 30,48 3,821 2,821 h 53 52 l 5,-830 5,-830 23,-37 c 40,-64 82,-82 201,-87 61,-2 119,1 142,8 51,15 98,56 120,106 18,38 19,86 19,857 v 818 l 283,2 283,3 -72,245 c -316,1075 -504,1717 -504,1722 0,3 18,8 40,10 22,2 40,3 40,2 0,-14 282,-899 293,-921 39,-75 155,-132 240,-119 118,19 207,119 207,233 0,46 -426,1407 -462,1475 -58,109 -160,186 -277,208 -29,5 -136,10 -237,10 h -184 v 99 99 l 48,28 c 161,94 262,271 262,458 -1,292 -218,520 -505,531 -49,2 -101,2 -115,-1 z"
           id="path1-7"
           style="fill:#b3e6ff;fill-opacity:1" /><path
           d="m 2568.4138,6114 c -242,-52 -420,-274 -420,-522 1,-179 99,-353 255,-452 l 65,-40 v -85 -85 h -297 c -328,0 -395,-8 -485,-57 -80,-44 -144,-112 -186,-200 l -37,-78 -3,-812 -3,-813 22,-50 c 62,-143 239,-186 356,-85 81,69 77,43 83,645 l 5,535 58,3 57,3 V 2218 c 0,-1728 1,-1805 19,-1843 22,-49 69,-91 119,-106 22,-6 92,-9 173,-7 128,3 138,4 177,31 23,15 52,46 64,70 l 23,42 3,1128 2,1127 h 65 65 V 1538 c 0,-1068 1,-1125 19,-1163 22,-49 69,-91 119,-106 22,-6 92,-9 173,-7 128,3 138,4 177,31 23,15 52,46 64,70 l 23,42 3,1808 2,1808 58,-3 57,-3 5,-540 c 5,-501 6,-542 23,-574 102,-186 382,-147 426,60 14,64 14,1473 1,1578 -23,172 -130,306 -295,366 -44,16 -91,19 -377,23 l -328,4 v 86 87 l 52,30 c 111,64 206,188 245,317 19,66 21,195 4,268 -47,192 -214,354 -408,395 -83,18 -138,18 -223,-1 z"
           id="path2-9"
           style="fill:#b3e6ff;fill-opacity:1" /><path
           d="m 8929.7068,4667 c -54,-18 -103,-45 -145,-78 -24,-20 -42,-27 -57,-23 -69,18 -157,-44 -242,-170 -44,-64 -101,-167 -101,-181 0,-3 20,-5 45,-5 25,0 57,-7 70,-16 28,-18 24,-24 50,70 24,85 58,157 95,199 49,56 66,48 33,-15 -26,-49 -28,-62 -28,-163 0,-99 3,-116 27,-168 30,-64 110,-154 163,-183 l 35,-19 v -77 -78 h -142 c -92,-1 -156,-6 -180,-14 -55,-20 -111,-69 -142,-125 -16,-30 -91,-271 -182,-583 -167,-573 -167,-574 -123,-645 32,-52 81,-76 143,-71 63,5 98,28 126,83 11,22 61,182 111,355 49,173 92,321 94,328 4,12 56,17 67,7 3,-3 -86,-337 -197,-743 l -201,-737 195,-5 196,-5 5,-625 c 4,-447 8,-631 17,-645 6,-11 23,-31 38,-45 23,-22 37,-25 113,-28 73,-2 92,0 119,17 72,45 68,5 71,704 l 3,628 34,-3 35,-3 2,-620 c 3,-603 4,-621 23,-655 29,-49 76,-70 158,-70 79,0 127,18 154,58 17,25 18,71 23,657 l 5,630 195,3 c 107,2 195,4 197,5 1,1 -88,331 -198,732 -109,402 -199,736 -199,743 0,9 11,12 33,10 l 32,-3 101,-348 c 105,-362 113,-380 176,-413 42,-22 110,-18 149,9 40,26 79.0002,97 79.0002,143 0,18 -43.0002,180 -96.0002,360 -238,822 -228,792 -296,849 -66,56 -100,65 -260,65 h -148 v 78 l 1,77 56,35 c 164,102 226,327 139,503 -27,55 -14,62 31,15 40,-43 78,-118 102,-209 11,-39 23,-74 25,-76 3,-3 15,2 28,11 13,9 43,16 70,16 h 48 l -21,43 c -47,93 -123,199 -180,251 -64,59 -90,71 -141,64 -25,-4 -41,1 -68,23 -68,54 -147,83 -240,86 -52,2 -101,-2 -125,-10 z"
           id="path3-3"
           style="fill:#b3e6ff;fill-opacity:1" /><path
           d="m 6929.2154,4655 c -104,-32 -195,-112 -246,-215 -30,-60 -32,-72 -32,-170 0,-93 3,-112 27,-162 31,-67 92,-135 156,-177 l 47,-30 -3,-70 -4,-69 -171,-4 c -164,-3 -174,-4 -223,-30 -53,-28 -103,-77 -130,-129 -24,-48 -344,-1079 -344,-1111 0,-44 23,-90 63,-125 87,-76 221,-45 267,61 10,23 62,184 116,359 54,174 102,317 106,317 4,0 8,-617 8,-1371 0,-1530 -6,-1405 70,-1448 32,-18 55,-21 142,-21 126,0 162,15 196,80 l 22,44 v 838 838 h 50 50 V 1211 363 l 23,-34 c 36,-54 77,-69 192,-69 115,0 156,15 192,69 l 23,34 v 1370 c 0,754 3,1367 7,1363 4,-3 55,-161 114,-349 104,-331 109,-343 147,-379 109,-101 284,-27 284,120 0,33 -48,201 -161,560 -89,283 -170,531 -181,553 -26,50 -79,103 -133,131 -38,21 -58,23 -219,26 l -178,4 v 73 c 0,72 0,73 31,86 50,20 137,112 165,174 39,84 51,171 35,247 -41,198 -201,329 -400,327 -36,0 -85,-6 -108,-14 z"
           id="path4"
           style="fill:#b3e6ff;fill-opacity:1" /></g></g></g></svg>
