<?xml version="1.0" encoding="UTF-8" standalone="no"?>
<svg
   height="1706.24pt"
   preserveAspectRatio="xMidYMid"
   version="1.0"
   viewBox="0 0 1706.24 1706.24"
   width="1706.24pt"
   id="svg15"
   xmlns="http://www.w3.org/2000/svg"
   xmlns:svg="http://www.w3.org/2000/svg">
  <defs
     id="defs15" />
  <circle
     cx="853.12"
     cy="853.12"
     r="853.12"
     fill="#FFFFFF"
     id="circle1"
     style="fill:#ff8c00;fill-opacity:1" />
  <metadata
     id="metadata1">
Created by potrace 1.15, written by Peter Selinger 2001-2017
</metadata>
  <g
     fill="#FFFFFF"
     stroke="#FF8c00FF"
     transform="matrix(0.1,0,0,-0.1,250.03791,1377.8449)"
     id="g15"
     style="fill:#f9f9f9">
    <path
       d="m 2763,10489 c -248,-29 -479,-196 -587,-422 -111,-233 -98,-498 35,-724 48,-80 171,-202 254,-251 147,-87 325,-125 485,-104 92,13 206,48 274,86 l 38,21 29,-35 c 17,-19 41,-51 55,-72 24,-34 25,-38 10,-67 -21,-40 -20,-89 3,-128 43,-69 916,-1136 945,-1154 19,-11 50,-19 77,-19 40,0 56,7 107,45 112,82 119,140 31,279 -59,92 -818,1026 -869,1069 -38,33 -68,41 -123,35 -42,-5 -42,-4 -95,63 l -53,69 55,64 c 30,36 74,99 96,140 l 42,76 h 2324 c 2260,0 2326,1 2362,19 82,42 102,90 102,249 0,109 -2,123 -27,173 -22,42 -38,59 -73,77 l -44,22 H 5894 3572 l -16,42 c -27,65 -99,171 -159,231 -165,164 -399,244 -634,216 z m 252,-166 c 101,-25 192,-79 275,-163 41,-42 85,-95 98,-118 l 23,-42 h -254 c -262,0 -295,-4 -351,-43 -51,-36 -66,-86 -66,-225 0,-131 11,-175 53,-220 46,-49 58,-51 336,-52 168,-1 261,-5 261,-11 0,-21 -60,-97 -124,-157 -78,-73 -179,-124 -288,-146 -95,-20 -136,-20 -231,-2 -336,65 -552,388 -482,721 43,206 209,387 417,454 94,31 219,32 333,4 z"
       id="path1"
       style="fill:#f9f9f9" />
    <path
       d="m 2555,10121 c -67,-39 -100,-90 -100,-154 0,-42 4,-52 33,-78 28,-25 40,-29 89,-29 100,0 190,63 213,150 32,118 -108,185 -235,111 z"
       id="path2"
       style="fill:#f9f9f9" />
    <path
       d="m 5175,9368 c -44,-22 -81,-42 -83,-43 -2,-2 13,-35 33,-75 l 36,-72 -60,-54 c -33,-30 -75,-77 -92,-104 -18,-28 -36,-50 -40,-50 -5,0 -39,11 -75,25 -37,14 -68,24 -69,23 -11,-17 -55,-163 -52,-172 3,-7 33,-21 66,-31 34,-10 64,-21 65,-24 2,-3 6,-57 7,-120 l 4,-113 -65,-29 c -35,-16 -66,-32 -69,-34 -7,-7 71,-165 81,-165 5,0 35,13 67,30 l 59,29 38,-51 c 36,-48 105,-110 163,-148 l 23,-16 -26,-72 -26,-72 33,-13 c 17,-8 56,-22 86,-32 62,-20 60,-22 91,70 l 20,60 h 97 c 54,0 117,4 140,8 l 42,9 25,-51 c 31,-61 32,-65 6,-49 -18,12 -24,9 -55,-27 l -35,-40 39,-33 39,-33 -18,-42 c -10,-23 -22,-59 -25,-79 -7,-36 -9,-38 -46,-38 -47,0 -52,-9 -44,-68 l 6,-47 50,3 c 36,3 49,0 49,-10 0,-7 11,-34 25,-60 l 25,-47 -25,-29 c -14,-17 -25,-34 -25,-39 0,-5 18,-24 39,-41 l 40,-32 27,35 c 26,34 28,35 50,20 13,-8 49,-22 81,-30 63,-17 73,-26 73,-72 0,-36 5,-38 74,-26 l 38,6 -5,44 c -4,43 -4,44 32,59 20,8 53,27 74,41 l 38,26 29,-28 c 16,-16 31,-27 33,-24 1,2 18,22 36,43 l 33,40 -32,26 -33,27 16,49 c 9,27 17,60 19,74 2,19 10,26 31,28 l 27,3 v -190 -191 l -27,-6 c -222,-50 -346,-99 -517,-201 l -58,-36 -157,157 -156,156 -170,-170 -170,-170 153,-153 154,-154 -57,-87 c -96,-147 -178,-345 -207,-501 l -11,-65 h -204 -203 v -240 -240 h 203 204 l 11,-64 c 20,-106 72,-254 132,-373 l 57,-111 -144,-144 -143,-143 167,-167 168,-168 132,132 132,132 33,-24 c 188,-140 391,-236 592,-279 l 81,-18 5,-204 5,-204 238,-3 237,-2 v 205 c 0,232 -12,203 95,225 144,30 371,128 495,213 l 65,45 133,-131 132,-132 170,170 170,170 -134,135 -135,135 54,90 c 68,114 131,269 164,407 l 26,108 h 203 202 v 240 240 h -202 -203 l -26,108 c -47,195 -138,390 -250,539 l -51,66 146,146 146,146 -167,167 -168,168 -157,-157 -157,-157 -98,51 c -107,56 -263,114 -358,132 -33,7 -68,15 -77,17 -16,5 -18,24 -18,210 v 204 h -225 -225 v 40 40 h -48 c -48,0 -49,0 -72,50 -13,27 -32,57 -42,67 -24,22 -23,36 8,72 l 26,31 -33,27 c -52,45 -54,45 -88,3 -31,-39 -31,-39 -66,-24 -19,7 -46,14 -60,14 -27,0 -30,4 -40,63 -7,41 -6,41 -101,22 -17,-4 -25,4 -39,34 l -17,40 54,53 c 30,29 67,72 81,96 15,23 31,42 36,42 4,0 34,-9 66,-20 32,-11 63,-20 69,-20 15,0 71,160 60,169 -5,5 -38,18 -74,31 l -65,22 3,81 c 2,51 -2,108 -12,150 -9,38 -16,70 -16,72 0,3 32,21 70,40 l 70,35 -40,80 c -22,44 -45,80 -50,80 -6,0 -41,-15 -79,-34 l -68,-35 -34,35 c -19,19 -57,51 -86,71 -29,20 -53,39 -53,43 0,4 9,33 20,65 11,32 20,64 20,71 0,15 -159,69 -170,58 -4,-5 -18,-37 -30,-71 l -23,-63 -96,-1 c -53,-1 -109,-4 -126,-8 -29,-7 -31,-5 -70,70 l -40,77 z m 410,-283 c 217,-57 346,-260 301,-475 -35,-166 -152,-282 -321,-316 -60,-13 -88,-14 -136,-5 -180,31 -310,161 -341,339 -48,282 221,529 497,457 z m 295,-1033 c -7,-3 -38,-18 -68,-34 -37,-19 -59,-25 -65,-19 -7,7 14,22 64,45 47,22 75,31 78,23 2,-6 -2,-13 -9,-15 z m 226,-128 c 123,-76 150,-244 58,-354 -106,-126 -309,-104 -389,41 -66,123 -14,276 115,334 58,25 157,16 216,-21 z m 695,-1039 c 306,-53 563,-234 727,-510 23,-38 39,-71 37,-73 -2,-3 -170,-51 -372,-107 l -368,-102 -35,22 c -58,38 -106,48 -195,42 l -83,-5 -261,262 c -143,144 -261,264 -261,267 0,22 201,132 307,168 147,49 347,64 504,36 z m -742,-669 264,-264 1,-89 c 1,-75 5,-96 28,-139 15,-27 45,-67 67,-87 l 41,-37 v -385 -384 l -32,6 c -116,21 -277,88 -388,162 -81,53 -211,182 -270,267 -210,304 -246,694 -94,1023 34,74 104,191 114,191 3,0 124,-119 269,-264 z m 1592,-188 c 0,-2 4,-39 8,-83 22,-225 -40,-465 -171,-665 -53,-81 -194,-224 -273,-277 -127,-85 -301,-155 -420,-169 l -55,-7 v 374 374 l 47,30 c 62,40 110,104 130,175 l 16,58 341,95 c 306,86 374,103 377,95 z m -960,-97 c 62,-62 20,-171 -65,-171 -25,0 -45,9 -68,29 -27,24 -33,36 -33,71 0,35 6,47 33,71 44,40 93,40 133,0 z"
       id="path3"
       style="fill:#f9f9f9" />
    <path
       d="m 5417,9000 c -92,-24 -179,-97 -219,-185 -30,-68 -31,-181 -1,-247 77,-171 281,-240 444,-152 62,34 104,81 136,152 22,46 24,65 21,135 -4,98 -30,158 -95,218 -76,70 -193,102 -286,79 z m 107,-214 c 44,-18 66,-52 66,-99 0,-78 -94,-126 -159,-81 -30,21 -51,71 -44,106 6,33 46,75 76,81 12,2 23,5 25,6 1,0 18,-5 36,-13 z"
       id="path4"
       style="fill:#f9f9f9" />
    <path
       d="m 5921,7899 c -82,-33 -125,-101 -119,-190 10,-132 143,-207 265,-148 76,37 118,129 95,208 -31,103 -149,167 -241,130 z"
       id="path5"
       style="fill:#f9f9f9" />
    <path
       d="m 7807,9295 c -22,-7 -50,-24 -64,-37 -54,-49 -53,-36 -53,-750 0,-624 2,-665 19,-704 22,-47 59,-80 110,-95 24,-7 353,-9 1016,-7 l 980,3 41,22 c 23,12 53,39 65,60 l 24,38 v 675 675 l -25,45 c -18,32 -38,52 -70,68 l -44,22 h -981 c -804,-1 -987,-3 -1018,-15 z"
       id="path6"
       style="fill:#f9f9f9" />
    <path
       d="m 6668,9104 -3,-56 -58,-18 c -31,-10 -69,-26 -83,-35 -26,-17 -27,-16 -68,24 -23,23 -46,41 -52,41 -5,0 -30,-20 -54,-45 l -44,-45 43,-44 43,-43 -28,-54 c -15,-30 -33,-72 -39,-94 -12,-40 -12,-40 -69,-43 l -56,-3 v -69 -70 h 60 c 50,0 60,-3 60,-17 0,-10 12,-45 25,-78 l 25,-60 -40,-40 -40,-41 50,-49 50,-49 37,36 38,37 53,-34 c 30,-18 76,-39 103,-45 l 49,-12 v -59 -59 h 70 70 v 58 58 l 59,18 c 32,10 74,28 92,41 l 34,23 40,-39 41,-39 49,50 49,50 -37,38 -38,39 26,54 c 13,30 28,69 31,87 6,32 7,32 65,32 h 59 v 70 70 h -59 -59 l -7,37 c -7,41 -59,148 -76,158 -7,5 5,23 32,51 l 43,44 -49,50 -49,50 -48,-47 c -39,-39 -49,-44 -62,-34 -9,7 -41,21 -73,31 l -58,18 -3,56 -3,56 h -69 -69 z m 175,-200 c 60,-20 131,-84 165,-148 22,-43 27,-64 27,-131 0,-95 -22,-152 -82,-212 -62,-62 -124,-87 -213,-87 -89,0 -151,25 -213,87 -60,60 -82,117 -82,212 0,67 5,88 27,131 32,62 104,127 161,148 56,19 153,20 210,0 z"
       id="path7"
       style="fill:#f9f9f9" />
    <path
       d="m 6679,8846 c -64,-17 -105,-49 -139,-109 -36,-63 -41,-148 -11,-213 34,-75 126,-134 211,-134 85,0 177,59 211,134 43,94 9,227 -73,286 -56,41 -131,55 -199,36 z m 95,-157 c 32,-15 50,-57 37,-90 -14,-37 -36,-51 -77,-47 -71,6 -95,78 -42,128 25,23 46,25 82,9 z"
       id="path8"
       style="fill:#f9f9f9" />
    <path
       d="m 1703,8608 c -23,-11 -22,-12 47,-143 39,-73 70,-134 70,-136 0,-2 -52,-3 -115,-1 l -115,3 v -825 -826 h 120 120 v 805 c 0,488 4,805 9,805 5,0 11,-6 13,-12 5,-21 293,-568 298,-567 3,0 66,98 141,217 l 136,217 289,2 289,3 208,-54 209,-53 9,24 c 5,13 9,28 9,32 0,4 -91,31 -202,60 l -203,52 -325,-3 -324,-3 -112,-175 c -61,-96 -115,-174 -120,-174 -4,1 -98,173 -208,383 -111,209 -205,381 -211,380 -5,0 -20,-5 -32,-11 z"
       id="path9"
       style="fill:#f9f9f9" />
    <path
       d="m 2467,8013 c -4,-3 -7,-305 -7,-670 v -663 h 125 125 v 670 670 h -118 c -65,0 -122,-3 -125,-7 z"
       id="path10"
       style="fill:#f9f9f9" />
    <path
       d="m 2900,7350 v -670 h 125 125 l -2,668 -3,667 -122,3 -123,3 z"
       id="path11"
       style="fill:#f9f9f9" />
    <path
       d="m 2030,7090 v -410 h 125 125 v 410 410 h -125 -125 z"
       id="path12"
       style="fill:#f9f9f9" />
    <path
       d="m 9270,7399 c -88,-35 -134,-113 -128,-216 l 3,-65 -304,-168 -303,-168 -34,14 c -131,55 -277,-42 -277,-184 0,-63 16,-103 60,-144 102,-97 251,-66 329,67 11,20 16,14 393,-422 l 183,-213 -26,-52 c -33,-67 -34,-129 -3,-189 44,-83 141,-125 234,-100 41,11 99,57 119,94 9,16 39,8 361,-105 l 351,-123 -5,-51 c -13,-123 75,-223 195,-224 181,-1 269,214 141,346 l -30,31 176,246 c 96,136 177,247 180,247 2,0 19,-9 37,-19 97,-57 228,-20 278,79 66,130 -27,291 -169,293 l -49,1 -141,315 c -78,174 -141,322 -141,329 0,6 4,12 9,12 5,0 24,12 41,26 117,99 80,296 -66,344 -124,41 -264,-58 -264,-187 0,-23 -3,-43 -7,-43 -5,0 -183,9 -398,20 -214,11 -409,20 -431,20 -40,0 -42,1 -48,38 -18,113 -159,193 -266,151 z m 770,-239 c 212,-11 386,-20 387,-20 9,-1 41,-75 36,-83 -4,-7 -97,-119 -207,-250 -150,-179 -203,-236 -215,-231 -57,24 -97,26 -153,7 l -58,-20 -190,235 -190,235 34,37 c 18,21 39,54 46,74 11,36 12,36 68,36 31,0 230,-9 442,-20 z m -765,-140 c 23,-7 61,-10 94,-7 l 56,6 193,-239 192,-239 -24,-36 c -14,-20 -26,-41 -28,-47 -3,-7 -176,10 -556,55 -304,37 -556,69 -561,71 -5,3 -11,25 -15,48 -4,24 -19,63 -33,87 -24,42 -25,44 -7,55 11,6 145,81 299,167 l 280,156 36,-33 c 20,-17 53,-37 74,-44 z m 1345,-10 h 46 l 143,-321 c 127,-284 142,-323 127,-331 -33,-18 -85,-69 -91,-89 -4,-10 -15,-19 -25,-19 -10,0 -161,27 -336,60 -175,33 -321,60 -324,60 -4,0 -7,18 -8,40 -2,43 -30,108 -56,129 -13,11 12,46 192,260 l 207,247 40,-18 c 22,-9 60,-18 85,-18 z M 9231,6480 c 279,-33 509,-60 513,-60 3,0 6,-12 6,-27 1,-25 12,-62 34,-114 5,-12 -33,-64 -134,-185 -78,-93 -147,-175 -154,-182 -10,-10 -21,-8 -57,12 -52,30 -137,35 -183,11 -15,-8 -32,-15 -36,-15 -7,0 -532,605 -538,620 -1,4 8,6 20,4 13,-2 251,-31 529,-64 z m 1255,-200 c 175,-33 322,-60 325,-60 3,0 9,-24 12,-53 3,-29 13,-68 22,-88 l 17,-35 -179,-251 -178,-252 -60,6 c -33,3 -65,11 -71,17 -27,27 -356,640 -346,644 33,11 80,53 100,90 13,23 27,42 31,42 5,0 152,-27 327,-60 z m -642,-55 c 13,-9 52,-22 87,-29 l 63,-13 178,-319 c 155,-280 175,-320 160,-329 -9,-5 -34,-27 -55,-47 l -38,-37 -347,122 -347,122 -6,60 c -3,33 -13,73 -21,90 l -16,29 76,91 c 152,180 234,275 238,275 3,0 15,-7 28,-15 z"
       id="path13"
       style="fill:#f9f9f9" />
    <path
       d="m 4900,7078 c -400,-86 -804,-233 -1193,-435 -439,-229 -747,-496 -955,-828 -44,-70 -135,-255 -172,-350 -72,-181 -108,-310 -200,-709 -39,-170 -87,-361 -107,-425 -68,-220 -74,-246 -75,-311 -1,-81 8,-110 83,-255 55,-107 59,-119 59,-182 0,-89 -26,-144 -134,-287 -46,-61 -144,-206 -218,-321 -126,-199 -201,-305 -296,-419 -56,-67 -101,-155 -108,-210 -13,-89 48,-182 133,-205 21,-6 83,-15 138,-22 55,-6 122,-20 148,-31 66,-29 123,-95 137,-161 12,-54 10,-71 -36,-233 -29,-100 0,-164 102,-229 30,-19 54,-40 54,-47 0,-7 -14,-25 -31,-39 -30,-24 -32,-30 -35,-102 -5,-135 34,-204 158,-277 152,-89 192,-137 191,-230 -1,-61 -6,-76 -78,-205 -49,-88 -50,-92 -50,-175 0,-91 10,-120 67,-192 40,-52 138,-114 215,-138 125,-39 232,-44 517,-24 274,19 387,14 485,-21 38,-13 252,-15 1822,-15 1417,0 1779,3 1779,13 0,6 -11,53 -24,102 -104,396 -101,898 7,1302 21,76 40,115 115,235 219,352 413,754 547,1140 36,101 44,129 103,338 94,331 149,681 159,1015 6,196 6,200 -13,185 -10,-8 -46,-37 -79,-64 -226,-186 -571,-353 -875,-425 -305,-73 -655,-79 -960,-17 -167,34 -442,110 -541,150 -487,196 -860,578 -1042,1066 -44,119 -121,424 -138,550 -16,122 -16,398 0,520 47,339 176,649 397,958 19,25 16,26 -56,10 z"
       id="path14"
       style="fill:#f9f9f9" />
    <path
       d="m 9652,4640 c -289,-41 -557,-199 -733,-433 -77,-102 -152,-256 -186,-382 -24,-91 -27,-116 -27,-280 0,-151 4,-192 21,-255 115,-415 400,-704 801,-812 110,-29 354,-36 475,-14 385,73 707,349 836,718 216,618 -149,1283 -790,1438 -96,23 -300,34 -397,20 z"
       id="path15"
       style="fill:#f9f9f9" />
  </g>
</svg>
